<svg xmlns="http://www.w3.org/2000/svg" viewBox="0 0 28.254 32" fill="none">
  <svg x="7.87" y="23.07" width="9.64066" height="8.93049" viewBox="0 0 9.64066 8.93049" fill="none">
    <path d="M0.0108657 4.90178C-0.0573598 5.2918 0.203034 5.66477 0.594193 5.73413L8.74941 7.17255C9.14056 7.24078 9.51239 6.98038 9.58176 6.58922L9.62951 6.31973C9.69888 5.92858 9.43735 5.55561 9.04619 5.48738L0.890973 4.0501C0.499814 3.98074 0.127986 4.24227 0.0586232 4.63343L0.0108657 4.90292V4.90178Z" fill="#CCCCCC"/>
    <path d="M0.0108657 2.88345C-0.0573598 3.27461 0.203034 3.64757 0.594193 3.7158L8.74941 5.15422C9.14056 5.22244 9.51239 4.96205 9.58176 4.57089L9.62951 4.3014C9.69888 3.91024 9.43735 3.53841 9.04619 3.46905L0.890973 2.03063C0.499814 1.96127 0.127986 2.2228 0.0586232 2.61396L0.0108657 2.88345Z" fill="#CCCCCC"/>
    <path d="M0.0108557 0.863966C-0.0573697 1.25513 0.203024 1.62695 0.594183 1.69632L8.7494 3.13474C9.14055 3.2041 9.51238 2.94257 9.58175 2.55141L9.6295 2.28192C9.69887 1.89076 9.43734 1.51893 9.04618 1.44957L0.890964 0.0111485C0.499804 -0.058214 0.127976 0.203317 0.0586133 0.594476L0.0108557 0.863966Z" fill="#CCCCCC"/>
    <path d="M2.2213 6.70066C2.2213 7.93213 3.40046 8.93049 4.85594 8.93049C6.09991 8.93049 7.14149 8.20048 7.4178 7.21803L2.26223 6.3095C2.23608 6.43685 2.2213 6.56648 2.2213 6.70066Z" fill="#B3B3B3"/>
  </svg>
  <svg x="0" y="0" width="25.3812" height="24.2365" viewBox="0 0 25.3812 24.2365" fill="none">
    <path d="M8.55212 19.8689C7.79595 19.8689 7.10346 19.6415 6.55425 19.2106C5.94477 19.3663 4.40742 19.5994 3.11 18.4874C2.02749 17.5595 1.58516 16.3053 1.75914 14.652C1.83987 13.8856 2.27197 13.1362 2.94512 12.5972C3.44203 12.1981 4.02081 11.9571 4.59049 11.9013C4.59049 11.3942 4.68146 10.6244 5.15222 10.0683C5.52063 9.63284 6.03915 9.4077 6.69298 9.3986C7.46961 9.38723 8.77271 9.66241 8.81251 11.6216C8.81706 11.8729 8.61807 12.081 8.36677 12.0855C8.11889 12.0901 7.90739 11.8911 7.90284 11.6398C7.88351 10.6949 7.52305 10.2946 6.70548 10.3083C6.32228 10.314 6.04142 10.4265 5.84812 10.654C5.45241 11.1202 5.4797 11.9912 5.52405 12.2879C5.54451 12.4278 5.49903 12.5699 5.40124 12.6711C5.30345 12.7735 5.16359 12.8235 5.02259 12.8076C4.53023 12.7519 3.98101 12.9327 3.51481 13.3068C3.02927 13.6957 2.71884 14.221 2.66426 14.7475C2.51985 16.1177 2.84051 17.058 3.70243 17.7972C4.91457 18.8365 6.44168 18.3009 6.50536 18.277C6.66682 18.219 6.84876 18.2554 6.9727 18.3725C7.44004 18.8114 8.10183 19.015 8.83525 18.9445C9.64145 18.8672 10.4135 18.4714 10.8001 17.937C11.7587 16.6123 11.6393 14.8566 11.6382 14.8396C11.6382 14.8282 11.637 14.8168 11.637 14.8055V3.84619C11.637 3.59489 11.8406 3.39135 12.0919 3.39135C12.3432 3.39135 12.5467 3.59489 12.5467 3.84619V14.7907C12.5604 15.0158 12.6445 16.9421 11.5381 18.4714C10.9957 19.2208 9.99395 19.7495 8.92281 19.8519C8.79773 19.8632 8.67492 19.8701 8.55326 19.8701L8.55212 19.8689Z" fill="#6366F1"/>
    <path d="M2.21175 15.1557C2.17877 15.1557 2.14693 15.1523 2.11396 15.1455C1.38281 14.984 0.000107574 14.1414 0.000107574 12.1015C0.000107574 10.7483 0.783563 9.82274 1.59203 9.37586C1.28275 9.03587 0.947304 8.54351 0.822224 7.92039C0.670991 7.16308 0.857474 6.391 1.37826 5.62801C1.99002 4.73198 3.43526 4.2942 4.74064 4.60804C5.87432 4.88094 6.60205 5.64507 6.73623 6.70484C6.76807 6.95386 6.59182 7.18128 6.3428 7.21312C6.09377 7.24495 5.86636 7.0687 5.83452 6.81968C5.71967 5.91115 4.96692 5.59845 4.528 5.4927C3.60127 5.26983 2.52559 5.55979 2.12988 6.14084C1.7535 6.69233 1.61364 7.2279 1.71257 7.73504C1.88313 8.60378 2.69729 9.15185 2.70638 9.15754C2.86216 9.26102 2.93949 9.44977 2.90083 9.63171C2.86216 9.81478 2.71548 9.95578 2.53127 9.98648C1.85811 10.0991 0.90978 10.8291 0.908643 12.1026C0.908643 13.9288 2.29362 14.2551 2.3084 14.2574C2.55401 14.312 2.70866 14.5542 2.65521 14.7998C2.60859 15.0124 2.42097 15.1568 2.21175 15.1568V15.1557Z" fill="#6366F1"/>
    <path d="M9.11734 7.61906C9.01501 7.61906 8.91267 7.61223 8.81033 7.59973C7.91544 7.48715 7.26389 6.86403 7.1081 5.97482C6.94891 5.0697 7.34348 4.15207 8.0462 3.79275C8.53743 3.54145 8.99567 3.49028 9.40844 3.64151C9.98494 3.85188 10.2203 4.37607 10.2442 4.43407C10.342 4.66603 10.2328 4.93211 10.002 5.0299C9.77231 5.12655 9.50737 5.0208 9.40844 4.79225C9.40275 4.77974 9.29814 4.56597 9.09005 4.49319C8.92631 4.43634 8.71368 4.47273 8.46011 4.60236C8.11557 4.7786 7.91544 5.3119 8.00413 5.81677C8.0553 6.10786 8.24292 6.61046 8.92518 6.69688C9.45392 6.76396 10.0156 6.54792 10.5057 6.08739C11.2767 5.36421 11.711 4.17936 11.6371 2.99565C11.5598 1.74257 10.6638 1.24566 10.2829 1.09102C9.56877 0.801062 8.74097 0.871561 8.31342 1.25931C7.70621 1.80966 7.86882 2.52148 7.87109 2.5283C7.91771 2.72274 7.83243 2.92401 7.66073 3.02635C7.48903 3.12869 7.27071 3.10594 7.12289 2.97177C7.08764 2.93993 6.19388 2.16557 5.13298 2.73639C4.61333 3.01611 4.12552 3.92692 4.24491 4.91051C4.27561 5.15953 4.09823 5.38695 3.84807 5.41651C3.59904 5.44721 3.37163 5.26983 3.34206 5.01967C3.18855 3.76091 3.77416 2.43506 4.70202 1.93474C5.61169 1.44465 6.43154 1.59702 6.98871 1.83695C7.06603 1.44579 7.25934 0.987544 7.70394 0.585014C8.3987 -0.0449338 9.57332 -0.180248 10.6274 0.248436C11.7702 0.713506 12.4706 1.69481 12.5468 2.93993C12.6378 4.40905 12.1079 5.83382 11.13 6.75146C10.5262 7.31773 9.82348 7.61906 9.11962 7.61906H9.11734Z" fill="#6366F1"/>
    <path d="M11.803 17.3867C11.7632 17.3867 11.7234 17.381 11.6836 17.3707C11.4414 17.3048 11.2982 17.0558 11.3641 16.8124C11.4767 16.3963 11.6905 15.1875 11.3414 14.5928C11.2493 14.4348 11.1253 14.3415 10.9525 14.2983C10.5056 14.1869 10.1702 14.2449 9.95527 14.4712C9.68123 14.7588 9.64826 15.2455 9.70625 15.4366C9.77789 15.6719 9.6494 15.9221 9.41515 16.0006C9.18205 16.0779 8.92848 15.9562 8.8432 15.7254C8.80454 15.623 8.43271 14.7134 7.52417 14.8589C6.9056 14.9578 6.7646 15.4877 6.73617 15.6469C6.67704 15.9801 6.78165 16.2939 6.98974 16.411C7.2092 16.5338 7.28652 16.8113 7.16372 17.0308C7.04091 17.2502 6.76346 17.3275 6.544 17.2047C5.99479 16.8966 5.71165 16.2064 5.84014 15.4877C5.98569 14.6747 6.5747 14.0902 7.37976 13.9606C8.04155 13.8549 8.56234 14.0641 8.94667 14.3756C9.02968 14.1835 9.14453 14.0015 9.29349 13.8446C9.60846 13.5137 10.1895 13.1703 11.1708 13.4159C11.579 13.5183 11.9088 13.7662 12.1237 14.1334C12.7264 15.1625 12.2909 16.8602 12.2385 17.0512C12.184 17.2536 11.9998 17.3867 11.7996 17.3867H11.803Z" fill="#6366F1"/>
    <path d="M12.1 13.1885H12.0977C11.8464 13.1885 11.644 12.9827 11.6451 12.7314C11.6508 11.4863 11.6553 10.3105 11.3336 9.98762C11.2869 9.941 11.2085 9.88642 11.0197 9.88642C10.4387 9.88642 10.3932 10.3447 10.3932 10.4857C10.3932 10.737 10.1896 10.9405 9.93834 10.9405C9.68705 10.9405 9.48351 10.737 9.48351 10.4857C9.48351 9.87959 9.89286 8.97674 11.0197 8.97674C11.412 8.97674 11.7349 9.10069 11.9783 9.34516C12.5673 9.93645 12.5616 11.1099 12.5548 12.7348C12.5537 12.985 12.3501 13.1874 12.1 13.1874V13.1885Z" fill="#6366F1"/>
    <path d="M16.8313 19.8689C16.7096 19.8689 16.5868 19.8632 16.4618 19.8507C15.3906 19.7484 14.3877 19.2197 13.8464 18.4703C12.7401 16.9409 12.8242 15.0147 12.8378 14.7895V3.84619C12.8378 3.59489 13.0414 3.39135 13.2927 3.39135C13.544 3.39135 13.7475 3.59489 13.7475 3.84619V14.8055C13.7475 14.8168 13.7475 14.8282 13.7464 14.8396C13.7464 14.8566 13.6315 16.6203 14.5844 17.937C14.971 18.4726 15.7431 18.8683 16.5493 18.9445C17.2827 19.0138 17.9445 18.8114 18.4119 18.3725C18.5369 18.2543 18.7189 18.2167 18.8815 18.277C18.944 18.2997 20.4711 18.8353 21.6833 17.796C22.5452 17.0569 22.8647 16.1165 22.7214 14.7463C22.6657 14.2199 22.3553 13.6945 21.8709 13.3056C21.4047 12.9315 20.8543 12.7496 20.3631 12.8065C20.2221 12.8224 20.0823 12.7723 19.9833 12.67C19.8855 12.5677 19.8401 12.4255 19.8617 12.2857C19.906 11.99 19.9333 11.119 19.5364 10.6528C19.3431 10.4254 19.0623 10.3117 18.6791 10.3071C18.6677 10.3071 18.6563 10.3071 18.645 10.3071C17.8479 10.3071 17.4999 10.7074 17.4806 11.6387C17.4749 11.89 17.2702 12.089 17.0167 12.0844C16.7654 12.0799 16.5664 11.8718 16.5709 11.6205C16.6107 9.66127 17.9104 9.38609 18.6905 9.39747C19.3443 9.40656 19.8628 9.63171 20.2312 10.0672C20.702 10.6232 20.7918 11.3931 20.7929 11.9002C21.3626 11.9559 21.9414 12.1981 22.4383 12.5961C23.1115 13.1362 23.5447 13.8856 23.6254 14.6508C23.7994 16.3042 23.3571 17.5584 22.2746 18.4862C20.9771 19.5983 19.4409 19.3641 18.8303 19.2094C18.28 19.6392 17.5875 19.8678 16.8313 19.8678V19.8689Z" fill="#6366F1"/>
    <path d="M23.1718 15.1557C22.9626 15.1557 22.7749 15.0113 22.7283 14.7987C22.6749 14.5542 22.8284 14.3131 23.0717 14.2574C23.1377 14.2415 24.4738 13.8969 24.4738 12.1015C24.4738 10.8291 23.5254 10.0979 22.8511 9.98535C22.6658 9.95465 22.5191 9.81365 22.4804 9.62944C22.4418 9.44523 22.5202 9.25761 22.6772 9.15527C22.684 9.15072 23.4993 8.60265 23.6687 7.73391C23.7676 7.22677 23.6278 6.69006 23.2514 6.13971C22.8557 5.55979 21.7789 5.2687 20.8533 5.49157C20.4155 5.59732 19.6627 5.91002 19.5467 6.81855C19.5149 7.06757 19.2875 7.24382 19.0385 7.21198C18.7894 7.18015 18.6132 6.95273 18.645 6.7037C18.7792 5.64394 19.507 4.87981 20.6406 4.60691C21.946 4.29194 23.3924 4.73085 24.003 5.62688C24.5238 6.38987 24.7114 7.16081 24.559 7.91925C24.434 8.54238 24.0997 9.03474 23.7892 9.37473C24.5977 9.82274 25.3812 10.7483 25.3812 12.1003C25.3812 14.1403 23.9985 14.9829 23.2673 15.1443C23.2343 15.1511 23.2014 15.1546 23.1695 15.1546L23.1718 15.1557Z" fill="#6366F1"/>
    <path d="M16.2663 7.61906C15.5624 7.61906 14.8597 7.31773 14.2559 6.75146C13.278 5.83382 12.7481 4.40905 12.8391 2.93993C12.9164 1.69481 13.6157 0.713506 14.7585 0.248436C15.8126 -0.180248 16.9872 -0.0449338 17.6819 0.585014C18.1265 0.987544 18.3199 1.44693 18.3972 1.83695C18.9544 1.59702 19.7742 1.44465 20.6839 1.93474C21.6117 2.43392 22.1973 3.76091 22.0438 5.01967C22.0131 5.26869 21.7868 5.44608 21.5378 5.41651C21.2888 5.38581 21.1103 5.15953 21.141 4.91051C21.2604 3.92692 20.7726 3.01725 20.2529 2.73639C19.1784 2.15761 18.2721 2.96267 18.263 2.97177C18.1152 3.10594 17.8969 3.12869 17.7252 3.02635C17.5535 2.92401 17.4682 2.72274 17.5148 2.5283C17.5205 2.50329 17.6672 1.79943 17.0725 1.25931C16.6449 0.871561 15.8171 0.801062 15.103 1.09102C14.7221 1.24566 13.8261 1.74257 13.7488 2.99565C13.676 4.17936 14.1092 5.36421 14.8802 6.08739C15.3702 6.54678 15.932 6.76283 16.4607 6.69688C17.143 6.61046 17.3306 6.109 17.3818 5.81677C17.4704 5.3119 17.2703 4.7786 16.9258 4.60236C16.6722 4.47273 16.4607 4.43634 16.2958 4.49319C16.0821 4.5671 15.9786 4.78997 15.9774 4.79225C15.8797 5.02422 15.6147 5.12996 15.3827 5.03218C15.1508 4.93439 15.0439 4.6649 15.1417 4.43407C15.1667 4.37494 15.4009 3.85188 15.9774 3.64151C16.3902 3.49142 16.8485 3.54259 17.3397 3.79275C18.0413 4.15207 18.4358 5.0697 18.2778 5.97482C18.122 6.86403 17.4693 7.48715 16.5744 7.59973C16.4732 7.61223 16.3709 7.61906 16.2685 7.61906H16.2663Z" fill="#6366F1"/>
    <path d="M13.5803 17.3867C13.3802 17.3867 13.1971 17.2536 13.1414 17.0512C13.0902 16.8613 12.6536 15.1625 13.2562 14.1334C13.4712 13.7662 13.8009 13.5183 14.2091 13.4159C15.1904 13.1703 15.7715 13.5137 16.0865 13.8446C16.2354 14.0015 16.3503 14.1835 16.4333 14.3756C16.8176 14.0652 17.3384 13.8549 18.0002 13.9606C18.8052 14.0891 19.3954 14.6747 19.5398 15.4877C19.6683 16.2064 19.3852 16.8966 18.8359 17.2047C18.6165 17.3275 18.3402 17.2502 18.2162 17.0308C18.0934 16.8113 18.1707 16.5338 18.3902 16.411C18.5994 16.2939 18.704 15.9801 18.6438 15.6469C18.6154 15.4866 18.4744 14.9578 17.8558 14.8589C16.9484 14.7145 16.5754 15.623 16.5356 15.7276C16.4492 15.9573 16.1945 16.0779 15.9625 15.9983C15.7306 15.9187 15.6021 15.6708 15.6737 15.4366C15.7317 15.2455 15.6987 14.7588 15.4247 14.4712C15.2086 14.2449 14.8743 14.1858 14.4274 14.2983C14.2546 14.3415 14.1318 14.4348 14.0386 14.5928C13.6895 15.1875 13.9112 16.4247 14.0158 16.8113C14.0818 17.0535 13.9385 17.3037 13.6963 17.3696C13.6565 17.381 13.6167 17.3855 13.5769 17.3855L13.5803 17.3867Z" fill="#6366F1"/>
    <path d="M13.2835 13.1885C13.0334 13.1885 12.8298 12.9861 12.8287 12.736C12.8219 11.1111 12.8162 9.93759 13.4052 9.3463C13.6485 9.10183 13.9715 8.97788 14.3638 8.97788C15.4906 8.97788 15.8988 9.8796 15.9 10.4868C15.9 10.7381 15.6964 10.9416 15.4451 10.9416C15.1938 10.9416 14.9926 10.7404 14.9903 10.4914C14.9857 10.3094 14.9164 9.88869 14.3638 9.88869C14.1739 9.88869 14.0965 9.94327 14.0488 9.98989C13.727 10.3128 13.7327 11.4886 13.7372 12.7337C13.7372 12.985 13.536 13.1897 13.2847 13.1908C13.2847 13.1908 13.2835 13.1908 13.2824 13.1908L13.2835 13.1885Z" fill="#6366F1"/>
    <path d="M15.9058 24.2354C15.8808 24.2354 15.8558 24.2331 15.8308 24.2297C15.5829 24.1887 15.4157 23.9545 15.4567 23.7066C15.4726 23.6122 15.8717 21.3631 18.5052 19.6745C18.7167 19.5392 18.9976 19.6006 19.134 19.8121C19.2693 20.0236 19.2079 20.3044 18.9964 20.4409C16.6995 21.9123 16.3584 23.8362 16.355 23.8556C16.3186 24.0784 16.1253 24.2365 15.907 24.2365L15.9058 24.2354Z" fill="#6366F1"/>
    <path d="M9.12645 22.9357C8.94679 22.9357 8.77736 22.8288 8.70572 22.6525C8.69663 22.6309 8.05758 21.1231 6.55776 20.4739C6.32693 20.3738 6.22118 20.1066 6.32125 19.8758C6.42131 19.6449 6.68966 19.5392 6.91935 19.6392C8.77167 20.442 9.51761 22.2329 9.54831 22.3091C9.64269 22.5422 9.53125 22.8072 9.29815 22.9016C9.24243 22.9243 9.18444 22.9345 9.12758 22.9345L9.12645 22.9357Z" fill="#6366F1"/>
    <path d="M13.1869 23.5031C13.03 23.5031 12.9026 23.3757 12.9026 23.2188C12.9026 23.1608 12.9117 21.7997 13.6622 20.7365C13.7532 20.608 13.9306 20.5773 14.0591 20.6683C14.1876 20.7593 14.2183 20.9367 14.1273 21.064C13.4826 21.976 13.4723 23.2063 13.4723 23.2188C13.4723 23.3757 13.345 23.5031 13.1881 23.5031H13.1869Z" fill="#6366F1"/>
    <path d="M14.0444 21.1845C13.5679 21.1845 13.1802 20.7968 13.1802 20.3204C13.1802 19.8439 13.5679 19.4562 14.0444 19.4562C14.5208 19.4562 14.9086 19.8439 14.9086 20.3204C14.9086 20.7968 14.5208 21.1845 14.0444 21.1845ZM14.0444 20.0258C13.8818 20.0258 13.7487 20.1578 13.7487 20.3215C13.7487 20.4852 13.8806 20.6171 14.0444 20.6171C14.2081 20.6171 14.34 20.4852 14.34 20.3215C14.34 20.1589 14.207 20.0258 14.0444 20.0258Z" fill="#6366F1"/>
    <path d="M12.1966 23.5031C12.0396 23.5031 11.9123 23.3757 11.9123 23.2188C11.9123 23.2063 11.9021 21.976 11.2573 21.064C11.1664 20.9355 11.1971 20.7581 11.3255 20.6672C11.454 20.5762 11.6314 20.6069 11.7213 20.7354C12.4717 21.7986 12.4808 23.1608 12.4808 23.2177C12.4808 23.3746 12.3535 23.5019 12.1966 23.5019V23.5031Z" fill="#6366F1"/>
    <path d="M11.3391 21.1845C10.8627 21.1845 10.4749 20.7968 10.4749 20.3204C10.4749 19.8439 10.8627 19.4562 11.3391 19.4562C11.8155 19.4562 12.2033 19.8439 12.2033 20.3204C12.2033 20.7968 11.8155 21.1845 11.3391 21.1845ZM11.3391 20.0258C11.1765 20.0258 11.0435 20.1578 11.0435 20.3215C11.0435 20.4852 11.1754 20.6171 11.3391 20.6171C11.5028 20.6171 11.6347 20.4852 11.6347 20.3215C11.6347 20.1578 11.5028 20.0258 11.3391 20.0258Z" fill="#6366F1"/>
  </svg>
  <svg x="3.8" y="1.92" width="24.454" height="16.073" viewBox="0 0 25.9878 18.0728" fill="none">
    <path d="M4.45413 11.9143C4.76167 10.9855 4.25802 9.9832 3.32919 9.67566C2.40036 9.36812 1.39808 9.87177 1.09054 10.8006C0.783002 11.7294 1.28666 12.7317 2.21549 13.0392C3.14432 13.3468 4.14659 12.8431 4.45413 11.9143Z" stroke="#D946EF" stroke-width="2" stroke-miterlimit="10"/>
    <path d="M10.8458 6.06244C11.4175 5.26838 11.2372 4.16126 10.4431 3.58962C9.64906 3.01798 8.54194 3.19829 7.9703 3.99235C7.39866 4.78641 7.57897 5.89353 8.37303 6.46517C9.16709 7.03681 10.2742 6.85651 10.8458 6.06244Z" stroke="#D946EF" stroke-width="2" stroke-miterlimit="10"/>
    <path d="M16.3459 17.0728C17.3243 17.0728 18.1175 16.2796 18.1175 15.3012C18.1175 14.3228 17.3243 13.5296 16.3459 13.5296C15.3675 13.5296 14.5743 14.3228 14.5743 15.3012C14.5743 16.2796 15.3675 17.0728 16.3459 17.0728Z" stroke="#D946EF" stroke-width="2" stroke-miterlimit="10"/>
    <path d="M23.2162 4.54317C24.1946 4.54317 24.9878 3.75001 24.9878 2.77159C24.9878 1.79317 24.1946 1 23.2162 1C22.2378 1 21.4446 1.79317 21.4446 2.77159C21.4446 3.75001 22.2378 4.54317 23.2162 4.54317Z" stroke="#D946EF" stroke-width="2" stroke-miterlimit="10"/>
    <path d="M4.02568 10.1411L8.09647 6.19195" stroke="#D946EF" stroke-width="2" stroke-miterlimit="10"/>
    <path d="M10.6696 6.37048L14.9894 14.2323" stroke="#D946EF" stroke-width="2" stroke-miterlimit="10"/>
    <path d="M17.5536 14.1198L22.7274 4.47495" stroke="#D946EF" stroke-width="2" stroke-miterlimit="10"/>
  </svg>
  <svg x="3.8" y="1.92" width="24.454" height="16.073" viewBox="0 0 24.704 16.5728" fill="none">
    <path d="M3.92036 11.1643C4.2279 10.2355 3.72424 9.2332 2.79541 8.92566C1.86658 8.61812 0.864305 9.12177 0.556764 10.0506C0.249223 10.9794 0.752878 11.9817 1.68171 12.2892C2.61054 12.5968 3.61281 12.0931 3.92036 11.1643Z" stroke="#FFFFFF" stroke-width="0.5" stroke-miterlimit="10"/>
    <path d="M10.3121 5.31244C10.8837 4.51838 10.7034 3.41126 9.90935 2.83962C9.11529 2.26798 8.00817 2.44829 7.43652 3.24235C6.86488 4.03641 7.04519 5.14353 7.83925 5.71517C8.63331 6.28681 9.74043 6.10651 10.3121 5.31244Z" stroke="#FFFFFF" stroke-width="0.5" stroke-miterlimit="10"/>
    <path d="M15.8121 16.3228C16.7905 16.3228 17.5837 15.5296 17.5837 14.5512C17.5837 13.5728 16.7905 12.7796 15.8121 12.7796C14.8337 12.7796 14.0405 13.5728 14.0405 14.5512C14.0405 15.5296 14.8337 16.3228 15.8121 16.3228Z" stroke="#FFFFFF" stroke-width="0.5" stroke-miterlimit="10"/>
    <path d="M22.6824 3.79317C23.6609 3.79317 24.454 3.00001 24.454 2.02159C24.454 1.04317 23.6609 0.25 22.6824 0.25C21.704 0.25 20.9109 1.04317 20.9109 2.02159C20.9109 3.00001 21.704 3.79317 22.6824 3.79317Z" stroke="#FFFFFF" stroke-width="0.5" stroke-miterlimit="10"/>
    <path d="M3.4919 9.39106L7.56269 5.44195" stroke="#FFFFFF" stroke-width="0.5" stroke-miterlimit="10"/>
    <path d="M10.1358 5.62048L14.4557 13.4823" stroke="#FFFFFF" stroke-width="0.5" stroke-miterlimit="10"/>
    <path d="M17.0198 13.3698L22.1936 3.72495" stroke="#FFFFFF" stroke-width="0.5" stroke-miterlimit="10"/>
  </svg>
</svg>
