<svg width="32" height="32" viewBox="0 0 32 32" fill="none" xmlns="http://www.w3.org/2000/svg">
  <circle cx="10" cy="16" r="6" fill="#0078D4"/>
  <circle cx="18.5" cy="12.5" r="5.5" fill="#0A5CBD"/>
  <circle cx="20" cy="20" r="7" fill="#00A2ED"/>
  <path d="M13 20C11.8 20 10.7 19.7 9.9 18.9L11.3 17.5C11.8 18 12.5 18.2 13.1 18.2C13.8 18.2 14.2 17.9 14.2 17.4C14.2 16.9 13.9 16.8 12.9 16.5C11.2 16 10 15.5 10 13.8C10 12 11.5 10.9 13.5 10.9C14.7 10.9 15.8 11.3 16.7 12L15.4 13.5C14.8 13 14.1 12.8 13.5 12.8C12.9 12.8 12.5 13.1 12.5 13.5C12.5 14 12.8 14.2 13.8 14.5C15.8 15.1 17 15.6 17 17.3C17 19.1 15.4 20 13 20Z" fill="white"/>
</svg>
